<svg class="icon" viewBox="0 0 1024 1024" xmlns="http://www.w3.org/2000/svg" width="200" height="200"><defs><style>@font-face{font-family:feedback-iconfont;src:url(//at.alicdn.com/t/font_1031158_u69w8yhxdu.woff2?t=1630033759944) format(&quot;woff2&quot;),url(//at.alicdn.com/t/font_1031158_u69w8yhxdu.woff?t=1630033759944) format(&quot;woff&quot;),url(//at.alicdn.com/t/font_1031158_u69w8yhxdu.ttf?t=1630033759944) format(&quot;truetype&quot;)}</style></defs><path d="M765.952 124.928v527.36q0 76.8.512 141.312t.512 100.352q0 24.576-11.776 40.96t-29.696 22.016-39.424 0-39.936-24.064q-37.888-38.912-81.92-81.408T473.6 765.952t-94.208-86.016-91.648-82.944q-19.456-17.408-29.184-43.008t-8.704-53.248 11.776-54.272 32.256-45.056q39.936-34.816 79.36-70.144t80.896-72.704 87.04-78.336 96.768-87.04q22.528-20.48 45.568-27.136T724.992 64t29.696 20.48 11.264 40.448z" fill="#fff"/></svg>