<svg class="icon" viewBox="0 0 1024 1024" xmlns="http://www.w3.org/2000/svg" width="200" height="200"><defs><style>@font-face{font-family:feedback-iconfont;src:url(//at.alicdn.com/t/font_1031158_u69w8yhxdu.woff2?t=1630033759944) format(&quot;woff2&quot;),url(//at.alicdn.com/t/font_1031158_u69w8yhxdu.woff?t=1630033759944) format(&quot;woff&quot;),url(//at.alicdn.com/t/font_1031158_u69w8yhxdu.ttf?t=1630033759944) format(&quot;truetype&quot;)}</style></defs><path d="m878.08 807.936-192-92.16 8.192-190.464 194.56 82.432z" fill="#FF8F00"/><path d="m707.072 841.216-186.88-96.256 165.888-29.184 192 92.16z" fill="#C16500"/><path d="M632.832 935.936 449.536 834.048l9.728-352.768 188.416 82.944z" fill="#C16500"/><path d="M647.68 564.224 459.264 481.28l303.104-41.984L960 516.096z" fill="#FF8F00"/><path d="m647.68 564.224 312.832-48.128-19.968 357.376-306.688 62.464 13.824-371.712zm230.4 243.712 10.752-200.192-173.056 28.672-8.704 204.8 171.008-33.28" fill="#FFC107"/><path d="m650.752 479.232-188.928-78.336 10.24-371.2L665.6 87.04z" fill="#1E88E5"/><path d="M665.6 87.04 472.064 29.696 781.824 5.12l204.288 53.248z" fill="#90CAF9"/><path d="m986.112 58.368-21.504 376.32-313.856 44.544L665.6 87.04z" fill="#2196F3"/><path d="M220.16 1020.416 51.2 907.776 52.736 537.6l173.056 91.648z" fill="#64B5F6"/><path d="M225.792 629.248 52.736 537.6l335.872-46.592 185.344 84.48z" fill="#1976D2"/><path d="m573.952 575.488-12.8 375.296-340.992 69.632 5.632-391.168z" fill="#2196F3"/><path d="m504.832 413.184-185.344-76.288 4.096-210.432 187.904 64.512z" fill="#FF8F00"/><path d="m309.248 438.784-178.176-79.872 188.416-22.016 185.344 76.288z" fill="#C16500"/><path d="M226.816 539.648 53.248 453.12l1.536-390.144 178.176 62.976z" fill="#FFD366"/><path d="M232.96 125.952 54.784 62.976 399.36 35.328l191.488 58.368z" fill="#FFE5AB"/><path d="m232.96 125.952 357.888-31.744-13.824 395.776-350.208 49.664 6.144-413.696zm271.872 287.232 6.656-222.208-197.632 19.968-4.096 227.84 195.072-25.6" fill="#FFC107"/></svg>