<svg id="图层_1" data-name="图层 1" version="1.1" width="260.735" height="259.36" xmlns="http://www.w3.org/2000/svg"><defs id="defs4"><style id="style2">.cls-1{fill:#f0837c;fill-rule:evenodd}.cls-2{fill:#ce3853}</style></defs><path class="cls-1" d="M17.592 107.78h25.44c0-18.19-2.23-34.86 17.54-44.74v62.28h-43z" id="path8"/><path class="cls-1" d="M17.592 150.78h25.44c0 18.19-2.23 34.85 17.54 44.73v-62.29h-43z" id="path10"/><path class="cls-1" d="M243.122 107.78h-25.44c0-18.19 2.23-34.86-17.55-44.74v62.28h43z" id="path12"/><path class="cls-1" d="M243.122 150.78h-25.44c0 18.19 2.23 34.85-17.55 44.73v-62.29h43z" id="path14"/><path class="cls-2" id="rect16" d="M77.632 22.669h16.4v215.7h-16.4z"/><path class="cls-2" id="rect18" d="M171.202 22.669h16.4v215.7h-16.4z"/><path d="M174.822 126.84a4 4 0 0 1-1.32 2.94 4.23 4.23 0 0 1-3 1.26h-2a11.37 11.37 0 0 1-4-.84 10.28 10.28 0 0 1-3.59-2.16l-3-3a8.82 8.82 0 0 1-2.22-3.29 9.93 9.93 0 0 1-.87-3.77V58.63a4.15 4.15 0 0 1 1.3-3 4.3 4.3 0 0 1 3.15-1.31h2.6a4.33 4.33 0 0 1 3.09 1.31 4.07 4.07 0 0 1 1.36 3v57.08a4 4 0 0 0 1.24 3 4.11 4.11 0 0 0 3 1.2 4.16 4.16 0 0 1 3 1.19 4 4 0 0 1 1.23 3zm-78.53-6.94a4.34 4.34 0 0 0 3-1.2 3.88 3.88 0 0 0 1.3-3V58.63a4.1 4.1 0 0 1 1.32-3 4.17 4.17 0 0 1 3.05-1.31h2.76a4.11 4.11 0 0 1 3.11 1.31 4.19 4.19 0 0 1 1.26 3v59.35a9.93 9.93 0 0 1-.87 3.77 8.66 8.66 0 0 1-2.26 3.29l-3 3a10.56 10.56 0 0 1-3.57 2.16 11.07 11.07 0 0 1-3.91.84h-2.11a4 4 0 0 1-3-1.26 4 4 0 0 1-1.24-2.93v-2.75a4.15 4.15 0 0 1 4.08-4.19zm80.93 6.94a6.23 6.23 0 0 1-2 4.65 6.79 6.79 0 0 1-2.15 1.43 6.51 6.51 0 0 1-2.54.51h-2a13.94 13.94 0 0 1-4.81-1 15.1 15.1 0 0 1-2.39-1.15 10.83 10.83 0 0 1-2-1.53l-2.89-2.91a10 10 0 0 1-1.63-1.88 12.1 12.1 0 0 1-1.21-2.3 15.11 15.11 0 0 1-.78-2.36 10.86 10.86 0 0 1-.28-2.32V58.63a6.47 6.47 0 0 1 2-4.67 6.89 6.89 0 0 1 2.23-1.53 6.81 6.81 0 0 1 2.63-.51h2.6a6.66 6.66 0 0 1 4.76 2 7 7 0 0 1 1.54 2.14 6.12 6.12 0 0 1 .55 2.57v57.08a1.73 1.73 0 0 0 .13.73 1.45 1.45 0 0 0 .38.54 1.65 1.65 0 0 0 1.3.52 6.41 6.41 0 0 1 4.63 1.88 6.44 6.44 0 0 1 1.47 2.15 6.63 6.63 0 0 1 .49 2.56zm-80.93-9.34a2.17 2.17 0 0 0 .74-.13h.08a2.37 2.37 0 0 0 .59-.4 1.59 1.59 0 0 0 .52-1.23V58.63a6.4 6.4 0 0 1 .53-2.55 6.84 6.84 0 0 1 1.48-2.12 6.92 6.92 0 0 1 2.17-1.51 6.35 6.35 0 0 1 2.59-.53h2.76a6.43 6.43 0 0 1 4.86 2.07 7.08 7.08 0 0 1 1.39 2.11 6.32 6.32 0 0 1 .5 2.51v59.37a12.4 12.4 0 0 1-1.05 4.68 12.32 12.32 0 0 1-1.24 2.28 9.73 9.73 0 0 1-1.6 1.83l-2.92 2.92-.19.17a12.51 12.51 0 0 1-1.86 1.39 15.62 15.62 0 0 1-2.36 1.15 17 17 0 0 1-2.43.73 11.07 11.07 0 0 1-2.34.27h-2.11a6.43 6.43 0 0 1-2.53-.51 6.87 6.87 0 0 1-3.56-3.58 6.35 6.35 0 0 1-.51-2.5v-2.75a6.46 6.46 0 0 1 .5-2.56 6.16 6.16 0 0 1 1.47-2.15 6.26 6.26 0 0 1 4.52-1.85zm-4.08-75.47a3.89 3.89 0 0 1 1.29-2.89 4 4 0 0 1 3-1.22h27a4.54 4.54 0 0 0 3-1.23 3.88 3.88 0 0 0 1.33-2.91V30.7a3.68 3.68 0 0 1 1.32-2.85 4.42 4.42 0 0 1 3-1.18h2.76a4.46 4.46 0 0 1 3 1.18 3.68 3.68 0 0 1 1.32 2.85v3.08a3.92 3.92 0 0 0 1.3 2.92 4.44 4.44 0 0 0 3.15 1.23h26.84a4.27 4.27 0 0 1 3 1.22 3.84 3.84 0 0 1 1.3 2.89v2.74a4 4 0 0 1-1.3 3 4.2 4.2 0 0 1-3 1.27h-26.74a4.24 4.24 0 0 0-3.15 1.32 4.13 4.13 0 0 0-1.3 3v79a3.87 3.87 0 0 1-1.32 2.93 4.27 4.27 0 0 1-3 1.26h-2.81a4.24 4.24 0 0 1-3-1.26 3.87 3.87 0 0 1-1.32-2.93v-79a4.08 4.08 0 0 0-1.36-3 4.33 4.33 0 0 0-3.09-1.32h-27a4 4 0 0 1-2.93-1.27 4.09 4.09 0 0 1-1.24-3zm-2.4 0a6.33 6.33 0 0 1 .51-2.51 6.47 6.47 0 0 1 1.46-2.1 6.66 6.66 0 0 1 2.12-1.41l.23-.08a6.74 6.74 0 0 1 2.27-.4h27a1.92 1.92 0 0 0 .74-.13 2.46 2.46 0 0 0 .74-.48 1.9 1.9 0 0 0 .44-.57 1.28 1.28 0 0 0 .11-.55v-3.1a6 6 0 0 1 .55-2.55 6.57 6.57 0 0 1 1.52-2.08 7 7 0 0 1 4.66-1.8h2.76a7 7 0 0 1 4.65 1.8 6.46 6.46 0 0 1 1.57 2.08 6 6 0 0 1 .55 2.55v3.08a1.6 1.6 0 0 0 .54 1.17 2 2 0 0 0 .67.44 2.18 2.18 0 0 0 .84.14h26.84a6.69 6.69 0 0 1 4.65 1.86 6.45 6.45 0 0 1 1.54 2.11 6.13 6.13 0 0 1 .54 2.54v2.74a6.18 6.18 0 0 1-.54 2.55 6.52 6.52 0 0 1-1.5 2.13 6.9 6.9 0 0 1-2.12 1.43 6.44 6.44 0 0 1-2.55.5h-26.82a2 2 0 0 0-1.45.6 1.85 1.85 0 0 0-.6 1.31v79a6.21 6.21 0 0 1-.54 2.55 6.81 6.81 0 0 1-1.54 2.13 6.63 6.63 0 0 1-4.67 1.9h-2.78a6.74 6.74 0 0 1-2.55-.5 7.1 7.1 0 0 1-2.14-1.41 6.65 6.65 0 0 1-1.54-2.13 6.21 6.21 0 0 1-.54-2.55v-79a1.8 1.8 0 0 0-.63-1.28 2.84 2.84 0 0 0-.72-.5 1.94 1.94 0 0 0-.7-.13h-27a6.44 6.44 0 0 1-2.54-.51 6.54 6.54 0 0 1-2.15-1.5 6.67 6.67 0 0 1-1.4-2.09l-.06-.15a6.52 6.52 0 0 1-.44-2.37z" id="path20" style="fill:#fed2ad"/><path d="M148.132 140.2a6.29 6.29 0 0 1 2.23.37 4.45 4.45 0 0 1 2 1.41 3.75 3.75 0 0 1 .83 2.6 5.09 5.09 0 0 1-.77 2.33l-42.65 72.92h46.25a2.24 2.24 0 0 0 1.45-.45.73.73 0 0 0 .24-.27.84.84 0 0 0 .06-.36v-16.79a5.43 5.43 0 0 1 .52-2.36 5.8 5.8 0 0 1 1.49-1.92l.07-.06a6.22 6.22 0 0 1 2.06-1.15 7.62 7.62 0 0 1 2.45-.39h2.46a7.1 7.1 0 0 1 2.39.4 6.24 6.24 0 0 1 2.07 1.2 5.8 5.8 0 0 1 1.49 1.92 5.43 5.43 0 0 1 .52 2.36v18.72a8 8 0 0 1-.28 2.05c-1.54 5.78-8.86 10.87-14.8 10.87h-60.2a6.71 6.71 0 0 1-2.33-.4 6.47 6.47 0 0 1-2-1.21 6 6 0 0 1-1.43-1.85 5.16 5.16 0 0 1-.53-2.32v-2.6a13.37 13.37 0 0 1 .14-1.89c.09-.68.22-1.36.38-2l.06-.22a17.91 17.91 0 0 1 .55-1.81 12.06 12.06 0 0 1 .78-1.76c14.21-24.05 27.24-49.19 41.6-73.09a7.21 7.21 0 0 1 1.48-1.75 9.23 9.23 0 0 1 2-1.33 10.37 10.37 0 0 1 2.17-.83 8.92 8.92 0 0 1 2.24-.3z" id="path22" style="fill:#fed2ad;fill-rule:evenodd"/><path d="M68.082 240.45a127.23 127.23 0 0 1 0-221.42v21.75a108.79 108.79 0 0 0 0 177.84zm119.5 3.1a127.38 127.38 0 0 1-109.94 1.8v-20.67a108.88 108.88 0 0 0 109.94-2.18zm9.56-222.32a127.22 127.22 0 0 1 0 217V215.9a108.77 108.77 0 0 0 0-172.32zm-66.39-18.69a126.6 126.6 0 0 1 56.83 13.38v21.06a108.85 108.85 0 0 0-109.94-2.2V14.13a126.67 126.67 0 0 1 53.11-11.59z" id="path24" style="fill:#ce3853;fill-rule:evenodd"/><path id="rect73" clip-path="none" style="fill:none" d="M0 0h260.735v259.36H0Z"/></svg>