<?xml version="1.0" encoding="UTF-8" standalone="no"?>
<svg
   id="图层_1"
   data-name="图层 1"
   viewBox="0 0 260.73541 259.3595"
   version="1.1"
   sodipodi:docname="木厶-01的副本.svg"
   inkscape:version="1.1.1 (c3084ef, 2021-09-22)"
   width="260.73541"
   height="259.3595"
   xmlns:inkscape="http://www.inkscape.org/namespaces/inkscape"
   xmlns:sodipodi="http://sodipodi.sourceforge.net/DTD/sodipodi-0.dtd"
   xmlns="http://www.w3.org/2000/svg"
   xmlns:svg="http://www.w3.org/2000/svg"
   xmlns:rdf="http://www.w3.org/1999/02/22-rdf-syntax-ns#"
   xmlns:cc="http://creativecommons.org/ns#"
   xmlns:dc="http://purl.org/dc/elements/1.1/">
  <sodipodi:namedview
     id="namedview27"
     pagecolor="#ffffff"
     bordercolor="#666666"
     borderopacity="1.0"
     inkscape:pageshadow="2"
     inkscape:pageopacity="0.0"
     inkscape:pagecheckerboard="0"
     showgrid="false"
     inkscape:zoom="1.4535809"
     inkscape:cx="-55.036496"
     inkscape:cy="137.93522"
     inkscape:window-width="1322"
     inkscape:window-height="777"
     inkscape:window-x="654"
     inkscape:window-y="1463"
     inkscape:window-maximized="0"
     inkscape:current-layer="图层_1"
     fit-margin-top="0"
     fit-margin-left="0"
     fit-margin-right="0"
     fit-margin-bottom="0" />
  <defs
     id="defs4">
    <style
       id="style2">.cls-1{fill:#f0837c;}.cls-1,.cls-4,.cls-5{fill-rule:evenodd;}.cls-2,.cls-5{fill:#ce3853;}.cls-3,.cls-4{fill:#fed2ad;}</style>
  </defs>
  <title
     id="title6">木厶</title>
  <path
     class="cls-1"
     d="m 17.591823,107.7792 h 25.44 c 0,-18.190002 -2.23,-34.860002 17.54,-44.740002 V 125.3192 h -43 z"
     id="path8" />
  <path
     class="cls-1"
     d="m 17.591823,150.7792 h 25.44 c 0,18.19 -2.23,34.85 17.54,44.73 v -62.29 h -43 z"
     id="path10" />
  <path
     class="cls-1"
     d="m 243.12182,107.7792 h -25.44 c 0,-18.190002 2.23,-34.860002 -17.55,-44.740002 V 125.3192 h 43 z"
     id="path12" />
  <path
     class="cls-1"
     d="m 243.12182,150.7792 h -25.44 c 0,18.19 2.23,34.85 -17.55,44.73 v -62.29 h 43 z"
     id="path14" />
  <rect
     class="cls-2"
     x="77.631828"
     y="22.669197"
     width="16.4"
     height="215.7"
     id="rect16" />
  <rect
     class="cls-2"
     x="171.20183"
     y="22.669197"
     width="16.4"
     height="215.7"
     id="rect18" />
  <path
     class="cls-3"
     d="m 174.82182,126.8392 a 4,4 0 0 1 -1.32,2.94 4.23,4.23 0 0 1 -3,1.26 h -2 a 11.37,11.37 0 0 1 -4,-0.84 10.28,10.28 0 0 1 -3.59,-2.16 l -3,-3 a 8.82,8.82 0 0 1 -2.22,-3.29 9.93,9.93 0 0 1 -0.87,-3.77 V 58.629198 a 4.15,4.15 0 0 1 1.3,-3 4.3,4.3 0 0 1 3.15,-1.31 h 2.6 a 4.33,4.33 0 0 1 3.09,1.31 4.07,4.07 0 0 1 1.36,3 V 115.7092 a 4,4 0 0 0 1.24,3 4.11,4.11 0 0 0 3,1.2 4.16,4.16 0 0 1 3,1.19 4,4 0 0 1 1.23,3 z m -78.529997,-6.94 a 4.34,4.34 0 0 0 3,-1.2 3.88,3.88 0 0 0 1.299997,-3 V 58.629198 a 4.1,4.1 0 0 1 1.32,-3 4.17,4.17 0 0 1 3.05,-1.31 h 2.76 a 4.11,4.11 0 0 1 3.11,1.31 4.19,4.19 0 0 1 1.26,3 V 117.9792 a 9.93,9.93 0 0 1 -0.87,3.77 8.66,8.66 0 0 1 -2.26,3.29 l -3,3 a 10.56,10.56 0 0 1 -3.57,2.16 11.07,11.07 0 0 1 -3.909997,0.84 h -2.11 a 4,4 0 0 1 -3,-1.26 4,4 0 0 1 -1.24,-2.93 v -2.75 a 4.15,4.15 0 0 1 4.08,-4.19 z m 80.929997,6.94 a 6.23,6.23 0 0 1 -2,4.65 6.79,6.79 0 0 1 -2.15,1.43 6.51,6.51 0 0 1 -2.54,0.51 h -2 a 13.94,13.94 0 0 1 -4.81,-1 15.1,15.1 0 0 1 -2.39,-1.15 10.83,10.83 0 0 1 -2,-1.53 l -2.89,-2.91 a 10,10 0 0 1 -1.63,-1.88 12.1,12.1 0 0 1 -1.21,-2.3 15.11,15.11 0 0 1 -0.78,-2.36 10.86,10.86 0 0 1 -0.28,-2.32 V 58.629198 a 6.47,6.47 0 0 1 2,-4.67 6.89,6.89 0 0 1 2.23,-1.53 6.81,6.81 0 0 1 2.63,-0.51 h 2.6 a 6.66,6.66 0 0 1 4.76,2 7,7 0 0 1 1.54,2.14 6.12,6.12 0 0 1 0.55,2.57 V 115.7092 a 1.73,1.73 0 0 0 0.13,0.73 1.45,1.45 0 0 0 0.38,0.54 1.65,1.65 0 0 0 1.3,0.52 6.41,6.41 0 0 1 4.63,1.88 v 0 a 6.44,6.44 0 0 1 1.47,2.15 6.63,6.63 0 0 1 0.49,2.56 z m -80.929997,-9.34 a 2.17,2.17 0 0 0 0.74,-0.13 h 0.08 a 2.37,2.37 0 0 0 0.59,-0.4 1.59,1.59 0 0 0 0.52,-1.23 V 58.629198 a 6.4,6.4 0 0 1 0.53,-2.55 6.84,6.84 0 0 1 1.479997,-2.12 6.92,6.92 0 0 1 2.17,-1.51 6.35,6.35 0 0 1 2.59,-0.53 h 2.76 a 6.43,6.43 0 0 1 4.86,2.07 v 0 a 7.08,7.08 0 0 1 1.39,2.11 6.32,6.32 0 0 1 0.5,2.51 V 117.9792 a 12.4,12.4 0 0 1 -1.05,4.68 v 0 a 12.32,12.32 0 0 1 -1.24,2.28 9.73,9.73 0 0 1 -1.6,1.83 l -2.92,2.92 -0.19,0.17 a 12.51,12.51 0 0 1 -1.86,1.39 15.62,15.62 0 0 1 -2.36,1.15 17,17 0 0 1 -2.43,0.73 11.07,11.07 0 0 1 -2.339997,0.27 h -2.11 a 6.43,6.43 0 0 1 -2.53,-0.51 6.87,6.87 0 0 1 -3.56,-3.58 6.35,6.35 0 0 1 -0.51,-2.5 v -2.75 a 6.46,6.46 0 0 1 0.5,-2.56 6.16,6.16 0 0 1 1.47,-2.15 6.26,6.26 0 0 1 4.52,-1.85 z m -4.08,-75.470002 a 3.89,3.89 0 0 1 1.29,-2.89 4,4 0 0 1 3,-1.22 h 26.999997 a 4.54,4.54 0 0 0 3,-1.23 3.88,3.88 0 0 0 1.33,-2.91 v -3.08 a 3.68,3.68 0 0 1 1.32,-2.85 4.42,4.42 0 0 1 3,-1.18 h 2.76 a 4.46,4.46 0 0 1 3,1.18 3.68,3.68 0 0 1 1.32,2.85 v 3.08 a 3.92,3.92 0 0 0 1.3,2.92 4.44,4.44 0 0 0 3.15,1.23 h 26.84 a 4.27,4.27 0 0 1 3,1.22 3.84,3.84 0 0 1 1.3,2.89 v 2.74 a 4,4 0 0 1 -1.3,3 4.2,4.2 0 0 1 -3,1.27 h -26.74 a 4.24,4.24 0 0 0 -3.15,1.32 4.13,4.13 0 0 0 -1.3,3 V 132.3692 a 3.87,3.87 0 0 1 -1.32,2.93 4.27,4.27 0 0 1 -3,1.26 h -2.81 a 4.24,4.24 0 0 1 -3,-1.26 3.87,3.87 0 0 1 -1.32,-2.93 V 53.369198 a 4.08,4.08 0 0 0 -1.36,-3 4.33,4.33 0 0 0 -3.09,-1.32 H 96.431823 a 4,4 0 0 1 -2.93,-1.27 4.09,4.09 0 0 1 -1.24,-3 z m -2.4,0 a 6.33,6.33 0 0 1 0.51,-2.51 6.47,6.47 0 0 1 1.46,-2.1 v 0 a 6.66,6.66 0 0 1 2.12,-1.41 l 0.23,-0.08 a 6.74,6.74 0 0 1 2.27,-0.4 h 26.999997 a 1.92,1.92 0 0 0 0.74,-0.13 v 0 a 2.46,2.46 0 0 0 0.74,-0.48 v 0 a 1.9,1.9 0 0 0 0.44,-0.57 1.28,1.28 0 0 0 0.11,-0.55 v -3.1 a 6,6 0 0 1 0.55,-2.55 6.57,6.57 0 0 1 1.52,-2.08 7,7 0 0 1 4.66,-1.8 h 2.76 a 7,7 0 0 1 4.65,1.8 6.46,6.46 0 0 1 1.57,2.08 6,6 0 0 1 0.55,2.55 v 3.08 a 1.6,1.6 0 0 0 0.54,1.17 2,2 0 0 0 0.67,0.44 2.18,2.18 0 0 0 0.84,0.14 h 26.84 a 6.69,6.69 0 0 1 4.65,1.86 6.45,6.45 0 0 1 1.54,2.11 6.13,6.13 0 0 1 0.54,2.54 v 2.74 a 6.18,6.18 0 0 1 -0.54,2.55 6.52,6.52 0 0 1 -1.5,2.13 v 0 a 6.9,6.9 0 0 1 -2.12,1.43 6.44,6.44 0 0 1 -2.55,0.5 h -26.82 a 2,2 0 0 0 -1.45,0.6 1.85,1.85 0 0 0 -0.6,1.31 V 132.2992 a 6.21,6.21 0 0 1 -0.54,2.55 6.81,6.81 0 0 1 -1.54,2.13 v 0 a 6.63,6.63 0 0 1 -4.67,1.9 h -2.78 a 6.74,6.74 0 0 1 -2.55,-0.5 7.1,7.1 0 0 1 -2.14,-1.41 6.65,6.65 0 0 1 -1.54,-2.13 6.21,6.21 0 0 1 -0.54,-2.55 V 53.289198 a 1.8,1.8 0 0 0 -0.63,-1.28 2.84,2.84 0 0 0 -0.72,-0.5 1.94,1.94 0 0 0 -0.7,-0.13 H 96.381823 a 6.44,6.44 0 0 1 -2.54,-0.51 6.54,6.54 0 0 1 -2.15,-1.5 v 0 a 6.67,6.67 0 0 1 -1.4,-2.09 l -0.06,-0.15 a 6.52,6.52 0 0 1 -0.44,-2.37 z"
     id="path20" />
  <path
     class="cls-4"
     d="m 148.13182,140.1992 a 6.29,6.29 0 0 1 2.23,0.37 4.45,4.45 0 0 1 2,1.41 3.75,3.75 0 0 1 0.83,2.6 5.09,5.09 0 0 1 -0.77,2.33 l -42.65,72.92 h 46.25 a 2.24,2.24 0 0 0 1.45,-0.45 0.73,0.73 0 0 0 0.24,-0.27 0.84,0.84 0 0 0 0.06,-0.36 v -16.79 a 5.43,5.43 0 0 1 0.52,-2.36 5.8,5.8 0 0 1 1.49,-1.92 l 0.07,-0.06 a 6.22,6.22 0 0 1 2.06,-1.15 7.62,7.62 0 0 1 2.45,-0.39 h 2.46 a 7.1,7.1 0 0 1 2.39,0.4 6.24,6.24 0 0 1 2.07,1.2 5.8,5.8 0 0 1 1.49,1.92 5.43,5.43 0 0 1 0.52,2.36 v 18.72 a 8,8 0 0 1 -0.28,2.05 c -1.54,5.78 -8.86,10.87 -14.8,10.87 H 98.011823 a 6.71,6.71 0 0 1 -2.33,-0.4 6.47,6.47 0 0 1 -2,-1.21 v 0 a 6,6 0 0 1 -1.43,-1.85 5.16,5.16 0 0 1 -0.53,-2.32 v -2.6 a 13.37,13.37 0 0 1 0.14,-1.89 c 0.09,-0.68 0.22,-1.36 0.38,-2 l 0.06,-0.22 a 17.91,17.91 0 0 1 0.55,-1.81 12.06,12.06 0 0 1 0.78,-1.76 c 14.209997,-24.05 27.239997,-49.19 41.599997,-73.09 a 7.21,7.21 0 0 1 1.48,-1.75 9.23,9.23 0 0 1 2,-1.33 10.37,10.37 0 0 1 2.17,-0.83 8.92,8.92 0 0 1 2.24,-0.3 z"
     id="path22" />
  <path
     class="cls-5"
     d="m 68.081823,240.4492 a 127.23,127.23 0 0 1 0,-221.420002 v 21.75 a 108.79,108.79 0 0 0 0,177.840002 z m 119.499997,3.1 a 127.38,127.38 0 0 1 -109.939997,1.8 v -20.67 a 108.88,108.88 0 0 0 109.939997,-2.18 z m 9.56,-222.320002 a 127.22,127.22 0 0 1 0,217.000002 v -22.33 a 108.77,108.77 0 0 0 0,-172.320002 z m -66.39,-18.69 a 126.6,126.6 0 0 1 56.83,13.38 v 21.06 a 108.85,108.85 0 0 0 -109.939997,-2.2 v -20.65 a 126.67,126.67 0 0 1 53.109997,-11.59 z"
     id="path24" />
  <path
     id="rect73"
     clip-path="none"
     style="fill:none"
     d="M 0,0 H 260.73541 V 259.3595 H 0 Z" />
  <metadata
     id="metadata17">
    <rdf:RDF>
      <cc:Work
         rdf:about="">
        <dc:title>木厶</dc:title>
      </cc:Work>
    </rdf:RDF>
  </metadata>
</svg>
