<svg class="icon" viewBox="0 0 1024 1024" xmlns="http://www.w3.org/2000/svg" width="200" height="200"><path d="M966.392 448.741L851.745 249.689a27.039 27.039 0 00-23.431-13.544h-42.126l-78.386-135.769a27.04 27.04 0 00-23.417-13.52H454.539a27.039 27.039 0 00-23.4 13.49l-20.99 36.249-156.729.025a27.04 27.04 0 00-23.413 13.52L115.084 349.191a27.041 27.041 0 000 27.04l20.925 36.243-78.386 135.769a27.041 27.041 0 000 27.04l114.923 199.052a27.04 27.04 0 0023.417 13.52h41.85l78.386 135.769a27.04 27.04 0 0023.417 13.52h229.845a27.04 27.04 0 0023.417-13.52l20.925-36.243h156.773a27.04 27.04 0 0023.417-13.52l114.923-199.052a27.041 27.041 0 000-27.04l-20.925-36.243 78.386-135.769a27.04 27.04 0 00.015-27.016zM767.96 557.282l-219.424-.026 82.291-142.529a4.517 4.517 0 000-4.507L462.345 118.403h219.439l84.889 147.035.003.004 84.888 147.032-83.604 144.808zm62.68-90.538h104.516l-78.388 135.767L804.51 512l26.13-45.256zm-208.921-54.27L540.73 552.748 517.204 512l27.429-47.509c.031-.054.042-.115.07-.17.125-.24.228-.49.31-.753.028-.091.062-.179.084-.271.082-.341.139-.693.139-1.059a4.46 4.46 0 00-.139-1.059c-.022-.092-.056-.181-.084-.272a4.565 4.565 0 00-.31-.753c-.029-.055-.039-.116-.07-.17L429.711 260.932a4.509 4.509 0 00-3.904-2.254h-49.653l78.384-135.768 167.181 289.564zM365.744 258.678h-52.255l-52.259-90.514 156.787-.024-52.273 90.538zm-62.664 0h-49.655a4.508 4.508 0 00-3.904 2.254l-82.29 142.528-23.526-40.748 109.719-190.038 49.656 86.004zm-131.946 156.05l84.891-147.036h54.856l.009.001.009-.001h112.307l109.718 190.039H368.347a4.508 4.508 0 00-3.904 2.254L195.961 751.802 86.244 561.763l84.89-147.035zm199.814 52.016h161.975l-23.527 40.749h-54.859c-.037 0-.073.014-.11.015a4.484 4.484 0 00-2.044.548c-.08.044-.154.093-.231.142a4.454 4.454 0 00-.652.499c-.068.063-.139.122-.203.189a4.439 4.439 0 00-.662.86L335.712 708.799a4.515 4.515 0 000 4.506l24.828 43.003H203.769l167.179-289.564zm-5.205 298.578l26.129 45.257-52.258 90.511-78.384-135.768h104.513zm31.334 54.272l24.826 43.001a4.508 4.508 0 003.904 2.253h164.579l-23.524 40.749h-219.44l49.655-86.003zm31.331 36.241L344.82 711.052l109.719-190.038 82.288 142.528a4.508 4.508 0 003.904 2.253h336.963l-109.718 190.04H428.408zm114.923-199.053l-80.987-140.276h47.055l27.427 47.51c.044.076.103.137.152.21.087.134.177.264.279.389.095.115.197.221.301.326.1.1.2.197.311.288.13.107.266.201.406.292.069.046.128.102.2.144.034.02.073.025.107.044.314.17.64.315.984.406.035.01.071.009.107.018.302.072.61.11.92.119.044.001.088.017.132.017.051 0 .099-.018.15-.019.062.002.119.018.18.018l229.505.027a4.509 4.509 0 003.904-2.253l24.841-43.027 53.556 92.759.001.003 24.83 43.005H543.331zm292.512-199.051l24.828-43.003a4.517 4.517 0 000-4.507l-82.289-142.529h47.325l109.457 190.039h-99.321z"/></svg>