<svg class="icon" viewBox="0 0 1024 1024" xmlns="http://www.w3.org/2000/svg" width="200" height="200"><defs><style/></defs><path d="M965.171 223.032c-6.118-47.682-24.018-86.773-53.227-115.983-29.2-29.205-68.194-47.094-115.968-53.217-43.669-5.648-92.672-.948-145.531 13.778-107.141 29.91-217.35 97.495-310.257 190.274a907.822 907.822 0 00-28.262 29.553c-87.02-.702-166.026 30.141-223.478 87.716a292.506 292.506 0 00-59.945 86.901 29.491 29.491 0 0026.85 41.554 30.684 30.684 0 0010.715-2.002c38.027-14.96 82.412-18.247 129.634-9.891-10.834 57.098-1.536 112.204 27.904 165.888a29.445 29.445 0 1051.533-28.253c-23.317-42.506-42.87-103.608.937-191.575.128-.23.24-.348.358-.588.343-.768.737-1.521 1.178-2.243l1.766-3.523 2.104-3.89c.113-.113.113-.231.23-.472 15.775-28.964 37.566-59.218 65.01-90.45l.112-.112a782.848 782.848 0 0134.847-36.982c62.525-62.52 135.408-113.587 207.948-146.944l276.593 276.598c-33.32 72.565-84.418 145.397-146.929 207.928-57.707 57.702-112.45 96.66-163.2 116.331-.107.118-.353.118-.47.236-1.66.584-3.308 1.295-4.941 1.894l-1.06.338c-1.772.59-3.42 1.178-5.187 1.772-.476.107-.937.343-1.403.481a221.169 221.169 0 01-21.662 5.878c-50.745 11.07-98.315 1.771-145.137-28.498a29.501 29.501 0 00-31.918 49.613c43.801 28.267 89.605 42.383 136.832 42.383a246.364 246.364 0 0046.039-4.52c8.422 47.323 5.069 91.719-9.769 129.745a29.45 29.45 0 0039.44 37.56 292.224 292.224 0 0086.901-59.945c57.58-57.569 88.428-136.463 87.721-223.472a1059.86 1059.86 0 0029.548-28.257c92.907-92.908 160.491-202.983 190.274-310.257 14.807-52.69 19.405-101.545 13.87-145.347zM212.905 435.087a344.77 344.77 0 00-66.647-6.707 275.364 275.364 0 00-28.022 1.3 203.34 203.34 0 0111.899-12.83c34.852-34.852 79.928-57.585 130.575-66.417-20.649 28.841-36.423 56.868-47.805 84.654zm389.253 453.77a201.4 201.4 0 01-12.83 11.9c2.82-30.26.941-62.173-5.418-94.91 27.787-11.3 55.936-27.197 84.65-47.677-8.694 50.749-31.432 95.846-66.402 130.688zm292.603-536.074a456.172 456.172 0 01-4.946 16.605L649.728 129.3a496.963 496.963 0 0116.599-4.94c89.257-24.843 163.66-16.005 204.042 24.381 40.382 40.382 49.352 114.77 24.392 204.042z" fill="#2578b5"/><path d="M418.365 607.401a29.45 29.45 0 00-41.676 0L187.945 796.14a29.491 29.491 0 00-.005 41.692 29.486 29.486 0 0041.687 0l188.738-188.739a29.655 29.655 0 000-41.692z" fill="#2578b5"/></svg>