<?xml version="1.0" standalone="no"?><!DOCTYPE svg PUBLIC "-//W3C//DTD SVG 1.1//EN" "http://www.w3.org/Graphics/SVG/1.1/DTD/svg11.dtd"><svg t="1631067824106" class="icon" viewBox="0 0 1024 1024" version="1.1" xmlns="http://www.w3.org/2000/svg" p-id="8294" xmlns:xlink="http://www.w3.org/1999/xlink" width="200" height="200"><defs><style type="text/css"></style></defs><path d="M616.6 416.9l296.6-207.7c6.6-4.6 8.1-13.8 3.2-20.3-40.5-53.8-90.9-99.8-148.5-135.2-6.8-4.2-15.8-1.9-19.8 5l-181 313.4c-3.7 6.4-1.9 14.5 4.1 18.8 9.8 6.8 18.7 14.8 26.5 23.8 4.8 5.4 12.9 6.4 18.9 2.2zM500.7 673.5l11 125.8c0.7 8.1 8.1 14 16.2 12.9 36.4-5 70.8-16.5 101.9-33.3 7.1-3.8 9.6-12.7 5.6-19.7l-63-109.2c-3.8-6.6-12.1-9-18.9-5.5-12.7 6.5-26.5 11.2-41 13.7-7.4 1.3-12.4 8-11.8 15.3zM580.6 643.6l110 157.1c4.7 6.6 13.9 8.1 20.3 3.2 35.3-27.3 65.5-60.8 89-98.9 4.2-6.8 1.9-15.8-5.1-19.8L629 589.5c-6.6-3.8-14.9-1.8-19.1 4.6-7.5 11.4-16.6 21.7-26.9 30.6-5.5 4.7-6.6 12.9-2.4 18.9zM382.4 767.5c27.5 11.3 57.2 18.2 88.3 19.9 8.2 0.5 15.1-6 15.1-14.2v-99c0-7.4-5.7-13.5-13.1-14.2-13.3-1.2-26.2-4.2-38.2-8.7-6.9-2.6-14.7 0.7-17.8 7.4l-41.8 89.7c-3.5 7.2-0.1 16 7.5 19.1zM649 122.9c-45.7-19.1-95.4-30.5-147.4-32.3-8.1-0.3-14.7 6.2-14.7 14.3v245.8c0 7.3 5.6 13.5 12.9 14.2 12.2 1.1 24 3.7 35.2 7.6 6.9 2.4 14.5-0.9 17.5-7.5l103.9-222.8c3.4-7.5 0.1-16.2-7.4-19.3zM689.9 408.7c10.7 21 18.1 43.5 21.9 66.9 1.2 7.4 7.9 12.5 15.3 11.9l227.4-19.9c8.1-0.7 13.9-8 12.9-16-7.7-60.9-26.7-118.4-54.8-170.2-3.8-7-12.7-9.5-19.7-5.5l-197.4 114c-6.6 3.7-9.1 12-5.6 18.8zM275.6 656.9L55.9 810.7c-6.6 4.6-8.1 13.7-3.3 20.1 40.9 55.6 92.2 103 151 139.4 6.8 4.2 15.8 2 19.9-5l134.2-232.4c3.8-6.5 1.8-14.8-4.5-19-13.4-8.9-25.9-19.1-37.5-30.7-7.4-7.4-14.2-15.1-20.5-23.3-4.8-6-13.3-7.3-19.6-2.9zM340.5 441.9l-160.2-74.7c-7.3-3.4-16 0-19.2 7.4-15.6 36.7-25.2 76.6-27.5 118.4-0.4 8.2 6 15.1 14.2 15.1h177c7.3 0 13.4-5.5 14.2-12.8 1.4-12.4 4.4-24.3 8.6-35.6 2.8-6.9-0.4-14.7-7.1-17.8zM289.2 607.9c-10-20.6-16.7-42.8-19.8-65.8-1-7.5-7.8-12.9-15.4-12.3L13 551c-8 0.7-13.8 7.8-12.9 15.8 7 62.6 25.8 121.8 54.2 175 3.8 7.1 12.7 9.7 19.7 5.6l209.5-121c6.5-3.7 9-11.8 5.7-18.5zM471.5 351.1l-6.3-72c-0.7-8.2-8.2-14.1-16.3-12.9-23.7 3.6-46.3 10.5-67.3 20.3-7.6 3.5-10.5 12.8-6.3 20l36.3 62.9c3.6 6.2 11.2 8.7 17.8 5.9 9.7-4 19.8-7 30.4-9 7.3-1 12.3-7.8 11.7-15.2zM665.5 532.1c-1.8 14.1-5.5 27.5-10.8 40.2-3 7 0.3 15.1 7.2 18.4l300.5 140.1c7.3 3.4 16 0.1 19.2-7.3 24.9-58.4 39.8-122 42.5-188.8 0.3-8.1-6.1-14.9-14.3-14.9H679.7c-7.2-0.1-13.3 5.2-14.2 12.3z" fill="#5D72BA" p-id="8295"></path></svg>