<svg class="icon" viewBox="0 0 1024 1024" xmlns="http://www.w3.org/2000/svg" width="200" height="200"><defs><style/></defs><path d="M112.981 498.261c-44.288-77.226-53.29-149.504-21.802-203.989 42.154-73.045 147.968-98.56 281.77-74.197a13.739 13.739 0 11-4.906 27.008c-123.734-22.528-218.07.213-253.099 60.928-25.813 44.672-18.048 107.05 21.845 176.64a13.739 13.739 0 11-23.808 13.653zm636.587-258.944c78.293 1.024 134.656 25.43 160.043 69.376 34.986 60.544 7.68 153.387-73.302 249.046a13.739 13.739 0 1020.907 17.749c87.637-103.51 118.23-207.616 76.16-280.533-30.976-53.632-96.427-81.92-183.424-83.072a13.739 13.739 0 10-.341 27.434zm-79.104 650.198a13.739 13.739 0 00-18.859 4.693c-39.85 66.261-88.746 102.357-139.093 102.357-70.059 0-136.875-70.272-179.2-188.501a13.739 13.739 0 10-25.856 9.259C353.237 945.237 428.203 1024 512.426 1024c61.44 0 118.315-41.899 162.689-115.627a13.739 13.739 0 00-4.694-18.858zM984.32 778.837a65.707 65.707 0 01-103.936 53.334c-104.747 61.653-304.896 30.293-493.227-78.507-80.213-46.293-150.485-102.059-204.586-161.493a13.739 13.739 0 1120.309-18.475c52.139 57.301 120.192 111.317 197.973 156.203 177.792 102.656 364.928 133.12 460.672 81.322a65.707 65.707 0 11122.795-32.384zm-813.312 0a65.707 65.707 0 11-97.493-57.386c-9.942-122.752 119.04-287.318 314.026-399.872 80.982-46.763 165.291-79.958 244.523-96.896a13.739 13.739 0 015.76 26.794c-76.373 16.384-157.995 48.512-236.587 93.867C217.6 451.371 96.256 604.203 100.523 713.429c1.621-.128 3.2-.256 4.821-.256 36.267 0 65.707 29.44 65.707 65.707zm275.797-713.13a65.707 65.707 0 01131.328 0c0 .981-.085 1.92-.128 2.858 108.758 56.192 184.32 247.894 184.32 469.462 0 91.093-12.714 178.517-36.437 254.293a13.739 13.739 0 11-26.197-8.192c22.869-73.045 35.2-157.739 35.2-246.101 0-208.64-69.376-388.054-164.139-442.155a65.621 65.621 0 01-123.947-30.165zm55.638 425.856a47.53 47.53 0 1020.053 92.928 47.53 47.53 0 00-20.053-92.928z" fill="#87ABB6"/></svg>