<svg class="icon" viewBox="0 0 1024 1024" xmlns="http://www.w3.org/2000/svg" width="200" height="200"><path d="M626.1 262.4h-79.9v-79.9c0-22.1-17.9-40-40-40s-40 17.9-40 40v79.9h-79.9c-165.7 0-300 134.3-300 300s134.3 300 300 300h240c165.7 0 300-134.3 300-300s-134.6-300-300.2-300zm-210 320h-50v50c0 16.5-13.4 30-30 30-16.5 0-30-13.4-30-30v-50h-50c-16.5 0-30-13.4-30-30 0-16.5 13.4-30 30-30h50v-50c0-16.5 13.4-30 30-30 16.5 0 30 13.4 30 30v50h50c16.5 0 30 13.4 30 30-.1 16.6-13.5 30-30 30zm220-40c-27.7 0-50-22.3-50-50s22.3-50 50-50 50 22.3 50 50c0 27.6-22.4 50-50 50zm100 119.9c-27.7 0-50-22.3-50-50s22.3-50 50-50 50 22.3 50 50-22.4 50-50 50z" fill="#2F3977"/></svg>