<svg class="icon" viewBox="0 0 1025 1024" xmlns="http://www.w3.org/2000/svg" width="200.195" height="200"><defs><style/></defs><path d="M1004.728 466.4L557.624 19.328c-25.728-25.76-67.488-25.76-93.28 0L360.472 123.2l78.176 78.176c12.544-5.984 26.56-9.376 41.376-9.376 53.024 0 96 42.976 96 96 0 14.816-3.36 28.864-9.376 41.376l127.968 127.968c12.544-5.984 26.56-9.376 41.376-9.376 53.024 0 96 42.976 96 96s-42.976 96-96 96-96-42.976-96-96c0-14.816 3.36-28.864 9.376-41.376L521.4 374.624a88.837 88.837 0 01-9.376 3.872v266.976c37.28 13.184 64 48.704 64 90.528 0 53.024-42.976 96-96 96s-96-42.976-96-96c0-41.792 26.72-77.344 64-90.528V378.496c-37.28-13.184-64-48.704-64-90.528 0-14.816 3.36-28.864 9.376-41.376l-78.176-78.176L19.32 464.288c-25.76 25.792-25.76 67.52 0 93.28l447.136 447.072c25.728 25.76 67.488 25.76 93.28 0l444.992-444.992c25.76-25.76 25.76-67.552 0-93.28z" fill="#D96545"/></svg>