<?xml version="1.0" standalone="no"?><!DOCTYPE svg PUBLIC "-//W3C//DTD SVG 1.1//EN" "http://www.w3.org/Graphics/SVG/1.1/DTD/svg11.dtd"><svg t="1735642059701" class="icon" viewBox="0 0 1083 1024" version="1.1" xmlns="http://www.w3.org/2000/svg" p-id="5271" xmlns:xlink="http://www.w3.org/1999/xlink" width="211.5234375" height="200"><path d="M192.263216 690.85769a326.492754 326.492754 0 1 0 461.722421-461.738539 326.492754 326.492754 0 1 0-461.722421 461.738539Z" fill="#E9EAEB" p-id="5272"></path><path d="M393.275362 504.57971h445.217392v430.376812h-445.217392z" fill="#E9EAEB" p-id="5273"></path><path d="M853.333333 949.797101h-474.89855V489.73913h474.89855v460.057971z m-445.217391-29.681159h415.536232V519.42029h-415.536232v400.695652z" fill="#2A5082" p-id="5274"></path><path d="M467.478261 504.57971l252.289855-415.536232 252.289855 415.536232z" fill="#FFFFFF" p-id="5275"></path><path d="M972.057971 519.42029h-504.57971c-5.936232 0-10.388406-2.968116-13.356522-7.42029-2.968116-4.452174-2.968116-10.388406 0-14.84058l252.289855-415.536232c5.936232-8.904348 19.292754-8.904348 25.228986 0l252.289855 415.536232c2.968116 4.452174 2.968116 10.388406 0 14.84058-1.484058 4.452174-5.936232 7.42029-11.872464 7.42029z m-477.866667-29.68116h451.153624L719.768116 117.24058 494.191304 489.73913z" fill="#2A5082" p-id="5276"></path><path d="M482.318841 593.623188m-178.086957 0a178.086957 178.086957 0 1 0 356.173913 0 178.086957 178.086957 0 1 0-356.173913 0Z" fill="#A3D4FF" p-id="5277"></path><path d="M482.318841 786.550725c-106.852174 0-192.927536-86.075362-192.927537-192.927537s86.075362-192.927536 192.927537-192.927536 192.927536 86.075362 192.927536 192.927536-86.075362 192.927536-192.927536 192.927537z m0-356.173913c-90.527536 0-163.246377 72.718841-163.246377 163.246376s72.718841 163.246377 163.246377 163.246377 163.246377-72.718841 163.246376-163.246377-72.718841-163.246377-163.246376-163.246376z" fill="#2A5082" p-id="5278"></path><path d="M200.347826 311.652174h89.043478v89.043478h-89.043478z" fill="#FFFFFF" p-id="5279"></path><path d="M304.231884 415.536232h-118.724638v-118.724638h118.724638v118.724638z m-89.043478-29.68116h59.362319v-59.362318h-59.362319v59.362318z" fill="#2A5082" p-id="5280"></path><path d="M230.028986 385.855072h29.681159v59.362319h-29.681159zM230.028986 474.898551h29.681159v59.362319h-29.681159zM230.028986 563.942029h29.681159v59.362319h-29.681159zM230.028986 652.985507h29.681159v59.362319h-29.681159zM230.028986 742.028986h29.681159v59.362318h-29.681159zM704.927536 385.855072h29.68116v59.362319h-29.68116zM704.927536 474.898551h29.68116v59.362319h-29.68116zM704.927536 563.942029h29.68116v59.362319h-29.68116zM704.927536 652.985507h29.68116v59.362319h-29.68116zM704.927536 742.028986h29.68116v59.362318h-29.68116z" fill="#2A5082" p-id="5281"></path><path d="M675.246377 296.811594h89.043478v89.043478h-89.043478z" fill="#FFFFFF" p-id="5282"></path><path d="M779.130435 400.695652h-118.724638v-118.724638h118.724638v118.724638z m-89.043478-29.681159h59.362318v-59.362319h-59.362318v59.362319z" fill="#2A5082" p-id="5283"></path><path d="M675.246377 786.550725h89.043478v89.043478h-89.043478z" fill="#FFFFFF" p-id="5284"></path><path d="M779.130435 890.434783h-118.724638v-118.724638h118.724638v118.724638z m-89.043478-29.68116h59.362318v-59.362319h-59.362318v59.362319z" fill="#2A5082" p-id="5285"></path><path d="M200.347826 786.550725h89.043478v89.043478h-89.043478z" fill="#FFFFFF" p-id="5286"></path><path d="M304.231884 890.434783h-118.724638v-118.724638h118.724638v118.724638z m-89.043478-29.68116h59.362319v-59.362319h-59.362319v59.362319zM274.550725 341.333333h59.362318v29.68116h-59.362318zM363.594203 341.333333h59.362319v29.68116h-59.362319zM452.637681 341.333333h59.362319v29.68116h-59.362319zM541.681159 341.333333h59.362319v29.68116h-59.362319zM630.724638 341.333333h59.362319v29.68116h-59.362319z" fill="#2A5082" p-id="5287"></path><path d="M274.550725 816.231884h59.362318v29.681159h-59.362318zM363.594203 816.231884h59.362319v29.681159h-59.362319zM452.637681 816.231884h59.362319v29.681159h-59.362319zM541.681159 816.231884h59.362319v29.681159h-59.362319zM630.724638 816.231884h59.362319v29.681159h-59.362319z" fill="#2A5082" p-id="5288"></path></svg>