<svg class="icon" viewBox="0 0 1083 1024" xmlns="http://www.w3.org/2000/svg" width="211.523" height="200"><path d="M192.263 690.858a326.493 326.493 0 10461.723-461.739 326.493 326.493 0 10-461.723 461.739z" fill="#E9EAEB"/><path d="M393.275 504.58h445.218v430.377H393.275z" fill="#E9EAEB"/><path d="M853.333 949.797H378.435V489.74h474.898v460.058zm-445.217-29.681h415.536V519.42H408.116v400.696z" fill="#2A5082"/><path d="M467.478 504.58l252.29-415.537 252.29 415.537z" fill="#FFF"/><path d="M972.058 519.42h-504.58c-5.936 0-10.388-2.968-13.356-7.42s-2.968-10.388 0-14.84l252.29-415.537c5.936-8.904 19.292-8.904 25.229 0L983.93 497.16c2.968 4.453 2.968 10.389 0 14.841-1.485 4.452-5.937 7.42-11.873 7.42zm-477.867-29.68h451.154l-225.577-372.5-225.577 372.5z" fill="#2A5082"/><path d="M304.232 593.623a178.087 178.087 0 10356.174 0 178.087 178.087 0 10-356.174 0z" fill="#A3D4FF"/><path d="M482.319 786.55c-106.852 0-192.928-86.075-192.928-192.927s86.076-192.927 192.928-192.927 192.927 86.075 192.927 192.927-86.075 192.928-192.927 192.928zm0-356.173c-90.528 0-163.247 72.719-163.247 163.246S391.792 756.87 482.32 756.87s163.246-72.72 163.246-163.247-72.719-163.246-163.246-163.246z" fill="#2A5082"/><path d="M200.348 311.652h89.043v89.044h-89.043z" fill="#FFF"/><path d="M304.232 415.536H185.507V296.812h118.725v118.724zm-89.044-29.68h59.363v-59.363h-59.363v59.362z" fill="#2A5082"/><path d="M230.029 385.855h29.681v59.362H230.03zm0 89.044h29.681v59.362H230.03zm0 89.043h29.681v59.362H230.03zm0 89.044h29.681v59.362H230.03zm0 89.043h29.681v59.362H230.03zm474.899-356.174h29.68v59.362h-29.68zm0 89.044h29.68v59.362h-29.68zm0 89.043h29.68v59.362h-29.68zm0 89.044h29.68v59.362h-29.68zm0 89.043h29.68v59.362h-29.68z" fill="#2A5082"/><path d="M675.246 296.812h89.044v89.043h-89.044z" fill="#FFF"/><path d="M779.13 400.696H660.406V281.97H779.13v118.725zm-89.043-29.682h59.362v-59.362h-59.362v59.362z" fill="#2A5082"/><path d="M675.246 786.55h89.044v89.044h-89.044z" fill="#FFF"/><path d="M779.13 890.435H660.406V771.71H779.13v118.725zm-89.043-29.681h59.362V801.39h-59.362v59.363z" fill="#2A5082"/><path d="M200.348 786.55h89.043v89.044h-89.043z" fill="#FFF"/><path d="M304.232 890.435H185.507V771.71h118.725v118.725zm-89.044-29.681h59.363V801.39h-59.363v59.363zm59.363-519.42h59.362v29.68h-59.362zm89.043 0h59.363v29.68h-59.363zm89.044 0H512v29.68h-59.362zm89.043 0h59.362v29.68h-59.362zm89.044 0h59.362v29.68h-59.362z" fill="#2A5082"/><path d="M274.55 816.232h59.363v29.681h-59.362zm89.044 0h59.363v29.681h-59.363zm89.044 0H512v29.681h-59.362zm89.043 0h59.362v29.681h-59.362zm89.044 0h59.362v29.681h-59.362z" fill="#2A5082"/></svg>