<svg class="icon" viewBox="0 0 1024 1024" xmlns="http://www.w3.org/2000/svg" width="200" height="200"><defs><style/></defs><path d="M377.597 791.99s-39.2 22.8 27.8 30.4c81.198 9.199 122.598 7.999 211.997-9 0 0 23.6 14.799 56.399 27.599-200.397 85.799-453.594-5-296.196-49m-24.4-112.198s-43.8 32.4 23.2 39.4c86.599 9 155.198 9.6 273.596-13.2 0 0 16.4 16.6 42.2 25.6-242.597 70.998-512.594 5.8-338.996-51.8m206.397-190.197c49.4 56.799-13 107.998-13 107.998s125.399-64.8 67.8-145.798c-53.8-75.6-95-113.198 128.198-242.597.2 0-350.395 87.6-182.998 280.397m265.197 385.194s29 23.8-31.8 42.4c-115.798 35-481.593 45.6-583.192 1.4-36.6-15.8 32-38 53.6-42.6 22.4-4.8 35.4-4 35.4-4-40.6-28.6-262.598 56.2-112.8 80.4 408.395 66.398 744.79-29.8 638.792-77.6M396.397 563.593s-186.198 44.199-66 60.199c50.8 6.8 151.998 5.2 246.197-2.6 77-6.4 154.398-20.4 154.398-20.4s-27.2 11.6-46.8 25c-188.997 49.8-553.992 26.6-448.993-24.2 88.998-42.8 161.198-38 161.198-38M730.392 750.19c192.198-99.8 103.199-195.797 41.2-182.798-15.2 3.2-22 6-22 6s5.6-8.8 16.4-12.6c122.598-43.2 216.997 127.199-39.6 194.598 0-.2 3-2.8 4-5.2M614.394 0s106.398 106.399-100.999 269.996c-166.198 131.199-38 206.198 0 291.597-96.999-87.6-168.198-164.598-120.398-236.397C463.196 220.196 657.393 168.998 614.394 0M415.396 1020.786c184.398 11.8 467.594-6.6 474.194-93.8 0 0-12.8 33-152.398 59.4-157.398 29.6-351.595 26.2-466.594 7.2 0-.2 23.6 19.4 144.798 27.2" fill="#D25C49"/></svg>