<svg class="icon" viewBox="0 0 1024 1024" xmlns="http://www.w3.org/2000/svg" width="200" height="200"><defs><style/></defs><path d="M128 128h768v768H128V128m201.813 641.707c17.067 36.266 50.774 66.133 108.374 66.133 64 0 107.946-34.133 107.946-108.8V480.427H473.6v244.906c0 36.694-14.933 46.08-38.4 46.08-24.747 0-34.987-17.066-46.507-37.12l-58.88 35.414m255.147-7.68c21.333 41.813 64.427 73.813 131.84 73.813 68.267 0 119.467-35.413 119.467-100.693 0-60.16-34.56-87.04-96-113.494l-17.92-7.68c-31.147-13.226-44.374-22.186-44.374-43.52 0-17.493 13.227-31.146 34.56-31.146 20.48 0 34.134 8.96 46.507 31.146l55.893-37.12c-23.466-40.96-56.746-56.746-102.4-56.746-64.426 0-105.813 40.96-105.813 95.146 0 58.88 34.56 86.614 86.613 108.8l17.92 7.68c33.28 14.507 52.907 23.467 52.907 48.214 0 20.48-19.2 35.413-49.067 35.413-35.413 0-55.893-18.347-71.253-43.947l-58.88 34.134z" fill="#FFCA28"/></svg>