<?xml version="1.0" standalone="no"?><!DOCTYPE svg PUBLIC "-//W3C//DTD SVG 1.1//EN" "http://www.w3.org/Graphics/SVG/1.1/DTD/svg11.dtd"><svg t="1679229808106" class="icon" viewBox="0 0 1024 1024" version="1.1" xmlns="http://www.w3.org/2000/svg" p-id="7018" xmlns:xlink="http://www.w3.org/1999/xlink" width="200" height="200"><path d="M389 8.5H76c-18 0-33.7 6.7-47 20S9 57.8 9 76.5v313c0 18 6.7 33.7 20 47s29 20 47 20h313c18.7 0 34.5-6.7 47.5-20s19.5-29 19.5-47v-313c0-18.7-6.5-34.7-19.5-48s-28.8-20-47.5-20z m-16 252H261v112h-56v-112H93v-56h112v-112h56v112h112v56z m575-252H635c-18 0-33.7 6.7-47 20s-20 29.3-20 48v313c0 18 6.7 33.7 20 47s29 20 47 20h313c18.7 0 34.5-6.7 47.5-20s19.5-29 19.5-47v-313c0-18.7-6.5-34.7-19.5-48s-28.8-20-47.5-20z m-16 252H652v-56h280v56z m-543 307H76c-18 0-33.7 6.7-47 20s-20 29-20 47v313c0 18.7 6.7 34.7 20 48s29 20 47 20h313c18.7 0 34.5-6.7 47.5-20s19.5-29.3 19.5-48v-313c0-18-6.5-33.7-19.5-47s-28.8-20-47.5-20z m-38 303l-39 40-79-80-79 80-40-40 79-79-79-79 40-40 79 79 79-79 39 40-79 79 79 79z m597-303H635c-18 0-33.7 6.7-47 20s-20 29-20 47v313c0 18.7 6.7 34.7 20 48s29 20 47 20h313c18.7 0 34.5-6.7 47.5-20s19.5-29.3 19.5-48v-313c0-18-6.5-33.7-19.5-47s-28.8-20-47.5-20z m-44 308H680v-56h224v56z m0-112H680v-56h224v56z" fill="#61649f" p-id="7019"></path></svg>