<svg class="icon" viewBox="0 0 1024 1024" xmlns="http://www.w3.org/2000/svg" width="200" height="200"><defs><style/></defs><path d="M94.208 94.208v835.584h835.584V94.208H94.208zM729.129 500.06v.012c8.012.025 17.12.437 23.968 1.18 27.891 3.017 49.613 15.05 68.092 37.716 9.201 11.29 12.349 16.23 11.68 18.344-.433 1.364-6.747 5.886-26.821 19.21-19.72 13.093-26.071 17.015-27.546 17.015-1.497 0-4.614-3.207-9.105-9.365-8.653-11.856-17.486-17.267-31.14-19.071-14.684-1.946-27.857 2.682-34.308 12.058-5.515 8.012-6.349 20.902-1.966 30.27 5.079 10.848 14.27 16.846 49.494 32.29 40.624 17.814 61.21 30.006 76.204 45.138 16.146 16.294 24.326 35.107 26.839 61.719 1.227 12.972-.273 28.344-3.984 40.843-9.103 30.64-33.669 53.076-69.673 63.636-9.953 2.918-19.214 4.66-28.375 5.333-13.985 1.03-34.002.462-46.05-1.29-30.483-4.443-64.894-22.18-82.052-42.292-8.423-9.873-19.177-26.122-19.177-28.98 0-1.38.684-2.164 3.391-3.884 8.032-5.104 54.055-31.412 54.948-31.412.54 0 2.945 2.832 5.341 6.295 5.43 7.84 18.78 21.314 25.567 25.81 5.544 3.671 12.634 6.618 21.052 8.746 4.82 1.202 7.373 1.417 17.891 1.417 10.748-.004 12.952-.184 17.76-1.476 12.718-3.422 22.645-10.507 26.852-19.157 1.843-3.738 1.88-4.205 1.88-13.271v-9.4l-2.261-4.486c-5.475-10.866-17.271-18.323-54.57-34.478-17.13-7.422-38.113-17.885-46.305-23.091-18.696-11.88-31.653-25.463-40.157-42.088-8.458-16.534-9.717-22.688-9.738-47.549-.02-19.462-.053-19.222 3.975-31.644 3.656-11.272 11.14-23.863 19.4-32.645 16.487-17.524 40.578-28.788 66.368-31.029 3.298-.313 7.717-.434 12.524-.42zm-221.921 3.844h.008c49.67.025 78.143.197 78.6.484.86.532.969 4.855.969 32.444v31.828l-49.564.18-49.564.18v140.725c0 77.4-.157 141.185-.372 141.748-.35.948-4.164 1.02-36.414 1.02h-36.018l-.373-1.454c-.24-.799-.415-64.588-.42-141.75l-.012-140.297-49.561-.176-49.566-.18v-31.451c0-24.945.172-31.625.838-32.289.682-.702 25.976-.883 134.967-.991 21.012-.02 39.926-.031 56.484-.02z" fill="#0288D1"/></svg>