<svg class="icon" viewBox="0 0 1024 1024" xmlns="http://www.w3.org/2000/svg" width="200" height="200"><defs><style>@font-face{font-family:feedback-iconfont;src:url(&quot;//at.alicdn.com/t/font_1031158_u69w8yhxdu.woff2?t=1630033759944&quot;) format(&quot;woff2&quot;),url(&quot;//at.alicdn.com/t/font_1031158_u69w8yhxdu.woff?t=1630033759944&quot;) format(&quot;woff&quot;),url(&quot;//at.alicdn.com/t/font_1031158_u69w8yhxdu.ttf?t=1630033759944&quot;) format(&quot;truetype&quot;)}</style></defs><path d="M826.71 682.155L497.834 872.02 168.917 682.155V302.42l328.918-189.909 328.874 189.867z" fill="#FFF" fill-opacity=".785"/><path d="M524.203 84.48c-8.96 0-17.494 2.517-24.32 7.637l-337.067 189.44c-13.653 7.254-22.613 21.334-22.613 37.547v384c0 16.213 8.96 30.336 22.613 37.59l337.067 189.44c6.826 5.12 15.36 7.68 24.32 7.68s17.493-2.56 24.32-7.68l337.066-189.44c13.654-7.254 22.614-21.334 22.614-37.547v-384c0-16.214-8.96-30.379-22.614-37.632L548.523 92.075a40.32 40.32 0 00-24.32-7.638zm0 91.733L822.869 344.32v89.728h-.682v220.885h.682v23.04L524.203 846.037 225.536 677.931V344.32l298.667-168.107zm0 88.747L315.136 385.707l209.067 120.746 209.066-120.746L524.203 264.96zM310.869 481.707v152.746l170.667 98.518V580.224l-170.667-98.56zm426.667 0L566.869 580.18v152.747l170.667-98.475V481.707z" fill="#8ED6FB"/><path d="M524.203 264.96L315.136 385.707l209.067 120.746 209.066-120.746L524.203 264.96zM310.869 481.707v152.746l170.667 98.518V580.224l-170.667-98.56zm426.667 0L566.869 580.18v152.747l170.667-98.475V481.707z" fill="#1C78C0"/></svg>